<?xml version="1.0" encoding="utf-8"?>
<!-- Generator: Adobe Illustrator 21.1.0, SVG Export Plug-In . SVG Version: 6.00 Build 0)  -->
<svg version="1.1" id="Layer_1" xmlns="http://www.w3.org/2000/svg" xmlns:xlink="http://www.w3.org/1999/xlink" x="0px" y="0px"
	 viewBox="0 0 100 100" style="enable-background:new 0 0 100 100;" xml:space="preserve">
<style type="text/css">
	.st0{fill:#F2B723;}
	.st1{fill:#DD9C27;}
	.st2{fill:#D1860B;}
	.st3{fill:#F7D234;}
	.st4{fill:#6D360E;}
	.st5{fill:#6B1510;}
	.st6{fill:#A11A1C;}
	.st7{fill:#851817;}
	.st8{fill:#984F17;}
	.st9{fill:#FFFFFF;}
	.st10{fill:#E0E7DE;}
	.st11{fill:#3DA2DB;}
	.st12{fill:#1A3F71;}
	.st13{opacity:0.7;fill:#BCE3F9;}
	.st14{opacity:0.56;fill:#BCE3F9;}
</style>
<g>
	<g>
		<path class="st0" d="M21.1,52.2c0,0,2-15.2,7.2-23.3s14.3-17.7,26.1-14.3s18.4,14,21.1,23.1c2.7,9.1,3.3,13.9,3.3,13.9
			s6.3,8,8,15.8s0.4,21.5-9.8,26.5c-10.2,5.1-18.6,6.1-31,5.8c-12.3-0.3-26.8-4.8-31.8-14.7S16.1,58.5,21.1,52.2z"/>
		<path class="st1" d="M63.8,98.8c-4.9,1-10.3,1.4-17.8,1.2c-6.6-0.2-13.3-1.5-18.8-3.8c-6.4-2.7-11-6.5-13.3-11.1
			c-2.8-5.6-1.7-12.9-0.3-17.9c1.6-5.6,4.4-11.5,7.2-15.1c0.1-0.6,0.6-4.2,1.7-8.6c1.1-4.4,2.9-10.6,5.6-14.8
			c2.2-3.6,4.8-6.7,7.5-9.1c3.4-3,6.9-4.9,10.5-5.7c2.8-0.6,5.6-0.4,8.4,0.4c5.5,1.6,10.2,4.8,14.1,9.5c4,4.9,6.1,10.2,7.2,13.8
			c2.5,8.4,3.2,13.2,3.3,13.9c0.6,0.8,6.4,8.4,8,15.8c1.7,7.6,0.5,21.6-10,26.8C72.6,96.4,68.3,97.9,63.8,98.8z M46.2,14.5
			c-8.5,1.7-14.7,9.8-17.7,14.5c-2.6,4.2-4.4,10.3-5.5,14.7c-1.1,4.7-1.7,8.5-1.7,8.6l0,0.1l0,0.1c-5.1,6.4-11.8,22.8-6.9,32.4
			c2.3,4.5,6.8,8.2,13,10.8c5.4,2.2,12,3.6,18.6,3.7c7.5,0.2,12.8-0.2,17.7-1.2c4.5-0.9,8.6-2.4,13.2-4.6
			c10.2-5.1,11.4-18.8,9.7-26.2c-1.7-7.6-7.9-15.6-8-15.7l0-0.1l0-0.1c0,0-0.7-4.9-3.3-13.9c-1-3.5-3.1-8.7-7.1-13.6
			c-3.8-4.6-8.5-7.8-13.8-9.3C51.6,14.1,48.9,14,46.2,14.5z"/>
	</g>
	<g>
		<g>
			<path class="st0" d="M48.7,13.1c0,0,3.2-4.6,9.2-7.5l1.4,2.7c0,0-7,3.1-9.9,6.8"/>
			<path class="st2" d="M48.7,13.1c0.1-0.2,0.3-0.4,0.4-0.6c0.1-0.2,0.3-0.4,0.5-0.6c0.2-0.2,0.3-0.4,0.5-0.6
				c0.2-0.2,0.3-0.4,0.5-0.6c0.2-0.2,0.3-0.4,0.5-0.5c0.2-0.2,0.4-0.4,0.5-0.5l0.6-0.5c0.2-0.2,0.4-0.3,0.6-0.5
				c0.1-0.1,0.2-0.2,0.3-0.2l0.3-0.2C53.6,8,53.8,7.9,54,7.7l0.6-0.4l0.2-0.1l0.2-0.1l0.3-0.2l0.3-0.2c0.1-0.1,0.2-0.1,0.3-0.2
				l0.7-0.4c0.2-0.1,0.4-0.2,0.7-0.4l0.7-0.3l0.2-0.1l0.1,0.2l0.7,1.4l0.7,1.4l0.1,0.2l-0.2,0.1c-0.2,0.1-0.5,0.2-0.7,0.3
				c-0.2,0.1-0.5,0.2-0.7,0.3l-0.7,0.3c-0.2,0.1-0.4,0.2-0.7,0.3c-0.4,0.2-0.9,0.5-1.3,0.7c-0.4,0.2-0.9,0.5-1.3,0.8
				c-0.2,0.1-0.4,0.3-0.6,0.4c-0.2,0.1-0.4,0.3-0.6,0.4c-0.2,0.1-0.4,0.3-0.6,0.4c-0.2,0.1-0.4,0.3-0.6,0.4
				c-0.2,0.2-0.4,0.3-0.6,0.5l-0.3,0.2c-0.1,0.1-0.2,0.2-0.3,0.2c-0.1,0.1-0.2,0.2-0.3,0.3c-0.1,0.1-0.2,0.2-0.3,0.3
				c-0.1,0.1-0.2,0.2-0.3,0.3l-0.3,0.3l0.2-0.3c0.1-0.1,0.2-0.2,0.2-0.3c0.1-0.1,0.2-0.2,0.3-0.3c0.1-0.1,0.2-0.2,0.3-0.3
				c0.1-0.1,0.2-0.2,0.3-0.3l0.3-0.3c0.2-0.2,0.4-0.3,0.6-0.5c0.2-0.2,0.4-0.3,0.6-0.5c0.2-0.2,0.4-0.3,0.6-0.5
				c0.2-0.2,0.4-0.3,0.6-0.4c0.2-0.1,0.4-0.3,0.6-0.4c0.4-0.3,0.8-0.6,1.3-0.8c0.2-0.1,0.4-0.3,0.7-0.4c0.2-0.1,0.4-0.3,0.7-0.4
				C57,9.2,57.4,9,57.9,8.8c0.2-0.1,0.5-0.2,0.7-0.3c0.2-0.1,0.5-0.2,0.7-0.3l-0.1,0.3L58.4,7l-0.7-1.4l0.3,0.1l-0.7,0.3
				c-0.2,0.1-0.4,0.2-0.7,0.3l-0.6,0.4C56,6.9,55.9,7,55.8,7l-0.3,0.2l-0.3,0.2L55,7.5l-0.2,0.1L54.2,8c-0.2,0.1-0.4,0.3-0.6,0.4
				l-0.3,0.2c-0.1,0.1-0.2,0.2-0.3,0.2c-0.2,0.2-0.4,0.3-0.6,0.5l-0.6,0.5c-0.2,0.2-0.4,0.3-0.6,0.5c-0.2,0.2-0.4,0.3-0.5,0.5
				c-0.2,0.2-0.4,0.3-0.5,0.5c-0.2,0.2-0.3,0.4-0.5,0.5c-0.2,0.2-0.3,0.4-0.5,0.6C49,12.7,48.9,12.9,48.7,13.1z"/>
		</g>
		<g>
			<g>
				<path class="st0" d="M46.6,15c0,0,1-9.7,3.6-14.4c0,0,3-1,5.5,0.4c0,0-6.3,7.6-7.7,14.6"/>
				<path class="st2" d="M46.6,15c0-0.6,0.1-1.2,0.2-1.9c0.1-0.6,0.1-1.2,0.2-1.9c0-0.3,0.1-0.6,0.1-0.9c0-0.3,0.1-0.6,0.2-0.9
					c0.1-0.3,0.1-0.6,0.2-0.9c0.1-0.3,0.1-0.6,0.2-0.9c0.1-0.3,0.1-0.6,0.2-0.9c0.1-0.3,0.1-0.6,0.2-0.9c0.1-0.3,0.2-0.6,0.2-0.9
					c0.1-0.3,0.2-0.6,0.3-0.9c0.1-0.3,0.2-0.6,0.3-0.9c0.1-0.3,0.2-0.6,0.3-0.9c0.1-0.1,0.1-0.3,0.2-0.4c0.1-0.1,0.1-0.3,0.2-0.4
					c0.1-0.1,0.1-0.3,0.2-0.4L50,0.5l0-0.1l0.1,0c0.1,0,0.2-0.1,0.4-0.1c0.1,0,0.2-0.1,0.4-0.1c0.1,0,0.2,0,0.4-0.1
					c0.1,0,0.2,0,0.4-0.1c0.1,0,0.2,0,0.4,0c0.1,0,0.2,0,0.4,0c0.1,0,0.2,0,0.4,0c0.1,0,0.2,0,0.4,0c0.1,0,0.2,0,0.4,0l0.4,0
					c0.1,0,0.2,0,0.4,0.1c0.1,0,0.2,0,0.4,0.1l0.4,0.1l0.3,0.1l0.2,0.1l0.2,0.1l0.3,0.2l0.3,0.1l-0.2,0.3c-0.2,0.3-0.4,0.5-0.6,0.8
					c-0.2,0.3-0.4,0.5-0.6,0.8c-0.2,0.3-0.4,0.6-0.6,0.8c-0.2,0.3-0.4,0.6-0.6,0.8c-0.2,0.3-0.4,0.6-0.6,0.9l-0.3,0.4l-0.3,0.4
					c-0.2,0.3-0.4,0.6-0.5,0.9c-0.2,0.3-0.4,0.6-0.5,0.9c-0.2,0.3-0.3,0.6-0.5,0.9c-0.2,0.3-0.3,0.6-0.5,0.9
					c-0.2,0.3-0.3,0.6-0.5,0.9c-0.2,0.3-0.3,0.6-0.4,0.9c-0.1,0.3-0.3,0.6-0.4,1c-0.1,0.3-0.2,0.6-0.4,1c-0.1,0.3-0.2,0.7-0.3,1
					c-0.1,0.3-0.2,0.7-0.3,1c0.1-0.3,0.1-0.7,0.2-1c0.1-0.3,0.2-0.7,0.3-1c0.1-0.3,0.2-0.7,0.3-1c0.1-0.3,0.2-0.7,0.4-1
					c0.1-0.3,0.3-0.6,0.4-1c0.1-0.3,0.3-0.6,0.4-1c0.2-0.3,0.3-0.6,0.5-0.9c0.2-0.3,0.3-0.6,0.5-0.9c0.2-0.3,0.3-0.6,0.5-0.9
					c0.2-0.3,0.3-0.6,0.5-0.9c0.2-0.3,0.4-0.6,0.5-0.9c0.2-0.3,0.4-0.6,0.6-0.9c0.4-0.6,0.8-1.2,1.2-1.7c0.2-0.3,0.4-0.6,0.6-0.8
					c0.2-0.3,0.4-0.6,0.6-0.8l0.1,0.4l-0.3-0.1L55.1,1L55,1l-0.3-0.1l-0.3-0.1c-0.1,0-0.2-0.1-0.3-0.1c-0.1,0-0.2,0-0.3-0.1l-0.3,0
					c-0.1,0-0.2,0-0.3,0c-0.1,0-0.2,0-0.3,0c-0.1,0-0.2,0-0.3,0c-0.1,0-0.2,0-0.3,0c-0.1,0-0.2,0-0.3,0c-0.1,0-0.2,0-0.3,0
					c-0.1,0-0.2,0-0.3,0.1c-0.1,0-0.2,0-0.3,0.1c-0.1,0-0.2,0.1-0.3,0.1l0.2-0.1l-0.2,0.4c-0.1,0.1-0.1,0.3-0.2,0.4
					C50,1.7,49.9,1.8,49.8,2c-0.1,0.1-0.1,0.3-0.2,0.4c-0.1,0.3-0.2,0.6-0.3,0.9c-0.1,0.3-0.2,0.6-0.3,0.9c0,0.1-0.1,0.3-0.1,0.4
					c0,0.1-0.1,0.3-0.1,0.4c-0.1,0.3-0.2,0.6-0.3,0.9c-0.1,0.3-0.2,0.6-0.2,0.9c-0.1,0.3-0.2,0.6-0.2,0.9c-0.1,0.3-0.1,0.6-0.2,0.9
					c-0.1,0.3-0.1,0.6-0.2,0.9c-0.1,0.6-0.3,1.2-0.4,1.8c-0.1,0.6-0.2,1.2-0.3,1.8l-0.2,0.9C46.7,14.4,46.7,14.7,46.6,15z"/>
			</g>
			<path class="st3" d="M47,15.2c0,0,1.1-9.4,4.2-14.4c0,0,0.7-0.2,1.3-0.1c0,0-4.4,7.8-5.2,14.7L47,15.2z"/>
		</g>
		<path class="st3" d="M48.8,13.7c0,0,3.2-4.6,9.2-7.5L58.4,7C58.4,7,52.4,9.8,48.8,13.7z"/>
		<g>
			<path class="st0" d="M51.5,13.1c0,0,4.6-2.6,7.7-1.9l0.9,3.2c0,0-5-0.8-9.1,0.5"/>
			<path class="st2" d="M51.5,13.1c0.3-0.2,0.6-0.3,0.9-0.5c0.3-0.2,0.6-0.3,0.9-0.4c0.2-0.1,0.3-0.1,0.5-0.2
				c0.2-0.1,0.3-0.1,0.5-0.2c0.2-0.1,0.3-0.1,0.5-0.2c0.2-0.1,0.3-0.1,0.5-0.2c0.2-0.1,0.3-0.1,0.5-0.1c0.2,0,0.3-0.1,0.5-0.1
				c0.2,0,0.3-0.1,0.5-0.1c0.2,0,0.3-0.1,0.5-0.1c0.2,0,0.3,0,0.5,0l0.3,0c0.1,0,0.2,0,0.3,0c0.1,0,0.2,0,0.3,0c0.1,0,0.2,0,0.3,0
				c0.2,0,0.3,0,0.5,0.1l0.1,0l0,0.1l0.5,1.6c0.2,0.5,0.3,1.1,0.5,1.6l0.1,0.3l-0.3,0c-0.2,0-0.4-0.1-0.6-0.1c-0.2,0-0.4,0-0.6-0.1
				c-0.2,0-0.4,0-0.6,0c-0.2,0-0.4,0-0.6,0c-0.2,0-0.4,0-0.6,0c-0.2,0-0.4,0-0.6,0c-0.2,0-0.4,0-0.6,0c-0.2,0-0.4,0-0.6,0l-0.6,0
				l-0.6,0c-0.2,0-0.4,0-0.6,0l-0.3,0c-0.1,0-0.2,0-0.3,0l-0.6,0.1c-0.2,0-0.4,0.1-0.6,0.1l-0.3,0.1c-0.1,0-0.2,0-0.3,0.1L51,14.9
				l0.5-0.2c0.1,0,0.2-0.1,0.3-0.1l0.3-0.1c0.2,0,0.4-0.1,0.6-0.1l0.6-0.1c0.2,0,0.4-0.1,0.6-0.1c0.2,0,0.4-0.1,0.6-0.1l0.6-0.1
				l0.6,0c0.2,0,0.4,0,0.6,0c0.2,0,0.4,0,0.6,0c0.2,0,0.4,0,0.6,0c0.2,0,0.4,0,0.6,0c0.2,0,0.4,0,0.6,0c0.2,0,0.4,0,0.6,0
				c0.2,0,0.4,0,0.6,0.1c0.2,0,0.4,0,0.6,0.1l-0.2,0.2c-0.2-0.5-0.3-1-0.5-1.6l-0.5-1.6l0.1,0.1l-0.2,0c-0.1,0-0.2,0-0.2,0
				c-0.1,0-0.2,0-0.2,0c-0.1,0-0.2,0-0.2,0c-0.1,0-0.2,0-0.2,0l-0.2,0c-0.2,0-0.3,0-0.5,0c-0.2,0-0.3,0-0.5,0.1
				c-0.2,0-0.3,0.1-0.5,0.1c-0.2,0-0.3,0.1-0.5,0.1c-0.2,0-0.3,0.1-0.5,0.1c-0.2,0-0.3,0.1-0.5,0.1c-0.2,0-0.3,0.1-0.5,0.2
				c-0.2,0.1-0.3,0.1-0.5,0.2c-0.2,0.1-0.3,0.1-0.5,0.2c-0.3,0.1-0.6,0.2-0.9,0.4C52.1,12.8,51.8,13,51.5,13.1z"/>
		</g>
		<path class="st3" d="M51.3,13.8c0,0,3.5-2.4,7.6-2.1l0.2,1C59.2,12.7,56.7,11.4,51.3,13.8z"/>
	</g>
	<path class="st4" d="M59.2,13.8c0,0,2,2.8,3.7,4.2c1.7,1.4,9.1,7,10.1,7.8c0,0-1.2,0.1-5.2-1.3s-7.7-2.8-10.9-6
		C56.9,18.6,57.3,14.4,59.2,13.8z"/>
	<path class="st4" d="M43.9,14c0,0,1.6-1.7,0.8-4.2c0,0-3.3-1.5-7,0.6c-3.6,2.1-6.3,5.3-6.8,11.7C30.9,22.1,39.3,12,43.9,14z"/>
	<g>
		<path class="st2" d="M63.3,60.5C63.3,60.5,63.3,60.5,63.3,60.5C63.3,60.4,63.3,60.4,63.3,60.5c0.1-0.1,0.1-0.2,0.2-0.3
			c0.2-0.2,0.4-0.4,0.7-0.6c0.3-0.2,0.7-0.5,1.2-0.7c0.1-0.1,0.2-0.1,0.4-0.1c0.1,0,0.2-0.1,0.4-0.1c0.3-0.1,0.5-0.2,0.8-0.2
			c0.3-0.1,0.5-0.1,0.8-0.1c0.1,0,0.3,0,0.4,0c0.1,0,0.3,0,0.4,0c0.1,0,0.2,0,0.4,0c0.1,0,0.2,0,0.3,0.1c0.1,0,0.2,0,0.3,0.1
			c0.1,0,0.2,0.1,0.3,0.1c0.2,0.1,0.4,0.1,0.5,0.2c0.1,0.1,0.3,0.1,0.4,0.2c0.1,0.1,0.2,0.1,0.2,0.1c0.1,0,0.1,0,0.1,0s0,0-0.1,0
			c-0.1,0-0.2,0-0.3,0c-0.1,0-0.2,0-0.4,0c-0.1,0-0.2,0-0.2,0c-0.1,0-0.2,0-0.3,0c-0.1,0-0.2,0-0.3,0c-0.1,0-0.2,0-0.3,0
			c-0.1,0-0.2,0-0.3,0c-0.1,0-0.2,0-0.3,0c-0.1,0-0.2,0-0.3,0c-0.1,0-0.2,0-0.4,0c-0.2,0-0.5,0.1-0.7,0.1c-0.2,0-0.5,0.1-0.7,0.2
			c-0.2,0.1-0.5,0.1-0.7,0.2c-0.2,0.1-0.4,0.1-0.6,0.2c-0.2,0.1-0.4,0.2-0.6,0.2c-0.2,0.1-0.3,0.1-0.5,0.2c-0.1,0.1-0.3,0.1-0.4,0.2
			C63.5,60.3,63.4,60.4,63.3,60.5C63.3,60.4,63.3,60.5,63.3,60.5z"/>
		<path class="st2" d="M28.5,59.7C28.5,59.7,28.5,59.7,28.5,59.7c0.1-0.1,0.2-0.2,0.3-0.2c0.1-0.1,0.2-0.1,0.4-0.2
			c0.1-0.1,0.3-0.1,0.5-0.2c0.2-0.1,0.4-0.1,0.6-0.2c0.1,0,0.2,0,0.3-0.1c0.1,0,0.2,0,0.4,0c0.1,0,0.3,0,0.4,0c0.1,0,0.3,0,0.4,0
			c0.1,0,0.3,0,0.4,0c0.1,0,0.3,0,0.4,0c0.1,0,0.3,0,0.4,0.1c0.1,0,0.1,0,0.2,0c0.1,0,0.1,0,0.2,0c0.1,0,0.3,0.1,0.4,0.1
			c0.1,0,0.1,0,0.2,0.1c0.1,0,0.1,0,0.2,0.1c0.2,0.1,0.5,0.2,0.7,0.3c0.2,0.1,0.4,0.2,0.6,0.3c0.1,0,0.2,0.1,0.2,0.1
			c0.1,0,0.1,0.1,0.2,0.1c0.1,0.1,0.2,0.2,0.3,0.2c0.1,0.1,0.2,0.1,0.2,0.2c0,0,0.1,0.1,0.1,0.1s0,0-0.1,0c-0.1,0-0.1,0-0.3-0.1
			c-0.1,0-0.2-0.1-0.4-0.1c-0.1,0-0.2,0-0.2-0.1c-0.1,0-0.2,0-0.3-0.1c-0.2,0-0.4-0.1-0.6-0.2c-0.2,0-0.4-0.1-0.7-0.2
			c-0.2-0.1-0.5-0.1-0.7-0.1c-0.1,0-0.1,0-0.2,0c-0.1,0-0.1,0-0.2,0c-0.1,0-0.2,0-0.4-0.1c-0.1,0-0.2,0-0.4,0c-0.1,0-0.2,0-0.4,0
			c-0.2,0-0.5,0-0.7,0c-0.1,0-0.2,0-0.3,0c-0.1,0-0.2,0-0.3,0c-0.1,0-0.1,0-0.2,0c-0.1,0-0.1,0-0.2,0c-0.1,0-0.2,0-0.3,0
			c-0.2,0-0.4,0-0.5,0.1c-0.2,0-0.3,0-0.4,0.1C28.7,59.7,28.6,59.7,28.5,59.7C28.5,59.7,28.5,59.7,28.5,59.7z"/>
		<g>
			<path class="st5" d="M32.3,59.5c0,0,4,2.6,9.2,3.2c6.1,0.7,16.4,0.3,18.8-0.6c2.5-0.9,6.4-1.7,7.5-2.7c0,0-3.1,6.5-7.6,11.3
				c-4.5,4.8-13.5,8.9-20.7,1.9C34.5,67.7,32.3,59.5,32.3,59.5z"/>
			<path class="st2" d="M51,76.3c-4.3,0.9-8.3-0.3-11.6-3.5c-5-4.9-7.2-13.1-7.2-13.2c0-0.1,0-0.2,0.1-0.2c0.1-0.1,0.2-0.1,0.3,0
				c0,0,4,2.6,9.1,3.2c4.7,0.5,13.9,0.5,17.9-0.3c0.4-0.1,0.6-0.1,0.9-0.2c0.8-0.3,1.8-0.6,2.7-0.8c2-0.6,4-1.2,4.7-1.8
				c0.1-0.1,0.2-0.1,0.3,0c0.1,0.1,0.1,0.2,0.1,0.3c0,0.1-3.1,6.6-7.6,11.3C57.8,73.7,54.4,75.7,51,76.3z M32.7,60
				c0.6,1.9,2.8,8.4,7,12.4c3.2,3.1,7,4.3,11.2,3.4c3.3-0.7,6.7-2.6,9.2-5.3c3.5-3.7,6.2-8.6,7.1-10.4c-1,0.5-2.5,1-4.1,1.4
				c-0.9,0.3-1.9,0.6-2.7,0.8c-0.2,0.1-0.6,0.2-0.9,0.2c-1.7,0.3-4.8,0.6-8.2,0.7c-3.6,0.1-7.2,0-9.8-0.3C37.4,62.5,34,60.7,32.7,60
				z"/>
		</g>
		<g>
			<path class="st6" d="M42.4,74c0,0,1.5-1.8,3.6-1.6s3,1.7,3,1.7s1.3-1.8,3.2-1.8c1.9,0,3.3,1.4,3.3,1.4s-3.3,1.9-6.5,2
				C45.6,75.9,42.4,74,42.4,74z"/>
			<path class="st7" d="M50.6,76c-0.6,0.1-1.2,0.2-1.8,0.2c-3.3,0.1-6.5-1.8-6.7-1.9l-0.4-0.2l0.3-0.3c0-0.1,1.1-1.3,2.7-1.6
				C45.2,72,45.6,72,46,72c1.6,0.2,2.5,1,2.9,1.5c0.4-0.5,1.3-1.2,2.4-1.5c0.2-0.1,0.5-0.1,0.7-0.1c2,0,3.5,1.5,3.5,1.5l0.3,0.3
				l-0.4,0.2C55.5,74.2,53.2,75.4,50.6,76z M43,73.9c1,0.5,3.5,1.6,5.8,1.5c0.5,0,1.1-0.1,1.6-0.2c1.8-0.4,3.5-1.1,4.2-1.5
				c-0.5-0.4-1.5-1-2.6-1c-0.2,0-0.4,0-0.6,0.1c-1.4,0.3-2.3,1.5-2.3,1.6l-0.3,0.5l-0.3-0.5c0-0.1-0.8-1.3-2.7-1.5
				c-0.3,0-0.6,0-0.9,0C44.1,73,43.4,73.5,43,73.9z"/>
		</g>
		<path class="st2" d="M42.8,79.2c0,0,0.1,0,0.2,0c0.1,0,0.3,0,0.4,0.1c0.2,0,0.4,0.1,0.7,0.1c0.3,0,0.6,0.1,0.9,0.1
			c0.3,0,0.7,0.1,1.1,0.1c0.4,0,0.8,0.1,1.2,0.1c0.4,0,0.8,0,1.3,0c0.4,0,0.9,0,1.3,0l0.3,0c0.1,0,0.2,0,0.3,0c0.2,0,0.4,0,0.7,0
			c0.4,0,0.9-0.1,1.3-0.1c0.2,0,0.4-0.1,0.6-0.1c0.2,0,0.4-0.1,0.6-0.1c0.2,0,0.4-0.1,0.5-0.1c0.2,0,0.3-0.1,0.5-0.1
			c0.2,0,0.3-0.1,0.5-0.1c0.1,0,0.1,0,0.2,0c0.1,0,0.1,0,0.2,0c0.3-0.1,0.5-0.1,0.7-0.1c0.2,0,0.3-0.1,0.4-0.1c0.1,0,0.2,0,0.2,0
			s-0.1,0-0.1,0.1c-0.1,0-0.2,0.1-0.4,0.2c-0.2,0.1-0.4,0.2-0.7,0.3c-0.3,0.1-0.5,0.2-0.9,0.3c-0.3,0.1-0.7,0.2-1,0.3
			C53.5,80,53.3,80,53.1,80c-0.2,0-0.4,0.1-0.6,0.1c-0.2,0-0.4,0.1-0.6,0.1c-0.2,0-0.4,0.1-0.7,0.1c-0.2,0-0.4,0.1-0.7,0.1
			c-0.1,0-0.2,0-0.3,0l-0.3,0c-0.5,0-0.9,0-1.4,0c-0.4,0-0.9,0-1.3-0.1c-0.4,0-0.8-0.1-1.2-0.2c-0.4-0.1-0.7-0.2-1.1-0.2
			c-0.3-0.1-0.6-0.2-0.9-0.3c-0.3-0.1-0.5-0.2-0.7-0.3c-0.2-0.1-0.3-0.1-0.4-0.2C42.9,79.2,42.8,79.2,42.8,79.2z"/>
	</g>
	<path class="st3" d="M41.4,17.4c0,0-6.6,5-11.5,17.1s-5,19.8-5,19.8s-14.1,12.8-2.3,37.2c0,0-9.8-6.8-8.2-19.5s8.3-19,8.3-19
		S24.6,32.1,41.4,17.4z"/>
	<path class="st3" d="M64.4,21.9c-0.2-0.2,5,4,8.9,13.9S78,52.9,78,52.9s4.7,5.8,5.7,13.4l-5.2-6.5c0,0-1.7-4.4-3.6-6.8
		C74.9,52.9,74.2,36.3,64.4,21.9z"/>
	<g>
		<path class="st2" d="M24.3,55.1c0,0,0.1,0,0.2-0.1c0.1,0,0.2-0.1,0.3-0.1c0.1,0,0.2-0.1,0.4-0.1c0.1-0.1,0.3-0.1,0.5-0.2
			c0.2-0.1,0.4-0.1,0.6-0.2c0.2-0.1,0.4-0.1,0.6-0.2c0.2-0.1,0.5-0.1,0.7-0.2c0.3,0,0.5-0.1,0.8-0.1c0.3,0,0.6-0.1,0.9-0.1
			c0.3,0,0.6,0,0.9-0.1c0.3,0,0.6,0,0.9,0c0.3,0,0.7,0,1,0c0.3,0,0.7,0.1,1,0.1c0.3,0.1,0.7,0.1,1,0.2c0.1,0,0.2,0,0.3,0.1l0.3,0.1
			l0.5,0.1l0.1,0l0.1,0l0.1,0l0.2,0.1c0.2,0.1,0.3,0.1,0.5,0.2l0.2,0.1c0.1,0,0.2,0.1,0.2,0.1c0.2,0.1,0.3,0.1,0.5,0.2
			c0.3,0.1,0.6,0.3,0.9,0.4c0.1,0.1,0.3,0.1,0.4,0.2c0.1,0.1,0.3,0.2,0.4,0.2c0.1,0.1,0.3,0.1,0.4,0.2c0.1,0.1,0.3,0.2,0.4,0.2
			c0.1,0.1,0.3,0.2,0.4,0.2c0.1,0.1,0.3,0.2,0.4,0.2c0.2,0.2,0.5,0.3,0.7,0.5c0.2,0.2,0.4,0.3,0.6,0.5c0.4,0.3,0.7,0.6,1,0.9
			c0.3,0.3,0.5,0.6,0.7,0.8c0.2,0.2,0.3,0.4,0.4,0.5c0.1,0.1,0.1,0.2,0.1,0.2S44,60.1,43.9,60c-0.1-0.1-0.3-0.3-0.5-0.5
			c-0.2-0.2-0.5-0.4-0.8-0.7c-0.2-0.1-0.3-0.3-0.5-0.4c-0.2-0.1-0.4-0.3-0.6-0.4c-0.2-0.1-0.4-0.3-0.7-0.4c-0.1-0.1-0.2-0.1-0.3-0.2
			c-0.1-0.1-0.2-0.1-0.4-0.2c-0.1-0.1-0.2-0.1-0.4-0.2c-0.1-0.1-0.3-0.1-0.4-0.2c-0.1-0.1-0.3-0.1-0.4-0.2c-0.1-0.1-0.3-0.1-0.4-0.2
			c-0.1-0.1-0.3-0.1-0.4-0.2c-0.1-0.1-0.3-0.1-0.4-0.2c-0.3-0.1-0.6-0.3-0.9-0.4c-0.2-0.1-0.3-0.1-0.5-0.2c-0.1,0-0.2-0.1-0.2-0.1
			l-0.2-0.1c-0.2-0.1-0.3-0.1-0.5-0.2L35.1,55l0,0l0,0l0,0c0,0,0,0,0,0l-0.1,0l-0.1,0l-0.5-0.1l-0.2-0.1c-0.1,0-0.2,0-0.2-0.1
			c-0.3-0.1-0.6-0.1-1-0.2c-0.3,0-0.6-0.1-1-0.1c-0.3,0-0.6,0-0.9-0.1c-0.3,0-0.6,0-0.9,0c-0.3,0-0.6,0-0.9,0c-0.3,0-0.6,0-0.8,0.1
			c-0.3,0-0.5,0.1-0.8,0.1c-0.2,0-0.5,0.1-0.7,0.1c-0.2,0-0.4,0.1-0.6,0.1c-0.2,0-0.4,0.1-0.6,0.1c-0.2,0-0.3,0.1-0.5,0.1
			c-0.1,0-0.3,0.1-0.4,0.1c-0.1,0-0.2,0.1-0.3,0.1C24.5,55.1,24.4,55.1,24.3,55.1C24.3,55.1,24.3,55.1,24.3,55.1z"/>
		<path class="st8" d="M30.9,53.7c0,0-4.2-10.4-1.1-19.2c3.1-8.8,7.3-8.6,9.8-8.7c2.6-0.2,6.5,0.1,10.5,6.9c0,0,6.3-11.4,15.7-6
			s4.9,23.3,3.5,26.5l-7.9,0.6L48.5,53l-15.9-0.3L30.9,53.7z"/>
		<path class="st9" d="M31.8,53.5c0,0-4.1-14.2,2-22s14.6-0.3,16.5,1.7c0,0,7.3-8.6,14.2-4.1s6.1,17.3,4.2,24.3c0,0-7.5-1-12.9,5.7
			c0,0-3.2-1.1-5.8-4.8c0,0-2.1,2.9-6.8,4.8C43.1,59.1,40.3,54.4,31.8,53.5z"/>
		<path class="st10" d="M50.1,36.7c0,0,7.3-8.8,13.4-2.7s2.7,19.6,2.7,19.6s-6-0.1-10.5,5.5c0,0-3.4-0.8-5.8-4.8
			c0,0-2.2,3.2-6.8,4.8c0,0-1.9-3.2-9.2-5.2c0,0-2.6-10.6,1-17.7C38.5,29,46.9,32.8,50.1,36.7z"/>
		<g>
			<g>
				<path class="st11" d="M50.7,47.3c0.4,4.2,3.1,7.4,6.1,7.1c3-0.3,5.1-4,4.7-8.2s-3.1-7.4-6.1-7.1C52.4,39.4,50.3,43,50.7,47.3z"
					/>
				<path class="st12" d="M57.2,54.5L57.2,54.5c-0.1,0-0.3,0-0.4,0.1c-1.2,0.1-2.3-0.3-3.4-1.1c-1.6-1.3-2.7-3.6-3-6.2
					c-0.4-4.1,1.6-7.8,4.5-8.4c0.1,0,0.3,0,0.4-0.1c1.2-0.1,2.3,0.3,3.4,1.1c1.6,1.3,2.7,3.6,3,6.2C62.1,50.3,60.1,54,57.2,54.5z
					 M55,39.3c-2.7,0.6-4.5,4.1-4.2,8c0.2,2.4,1.3,4.7,2.8,5.9c1,0.8,2,1.1,3.1,1c0.1,0,0.2,0,0.4-0.1c2.7-0.6,4.5-4.1,4.2-8
					c-0.2-2.4-1.3-4.7-2.8-5.9c-1-0.8-2-1.1-3.1-1C55.3,39.2,55.1,39.3,55,39.3z"/>
			</g>
			<path class="st12" d="M53.2,47c0.2,2.7,1.6,4.7,3.2,4.6s2.7-2.4,2.5-5.1c-0.2-2.7-1.6-4.7-3.2-4.6S53,44.3,53.2,47z"/>
			<path class="st13" d="M56.9,39.1c0,0-3.4,1.7,0.2,5.6c2.5,2.8,4.2-0.3,4.2-0.3S61,40.8,56.9,39.1z"/>
			<path class="st13" d="M55.8,50.2c0.7,0.9,0.8,1.9,0.2,2.4c-0.6,0.5-1.6,0.1-2.3-0.7c-0.7-0.9-0.8-1.9-0.2-2.4
				C54.1,49,55.1,49.3,55.8,50.2z"/>
			<path class="st14" d="M54,46.2c0,0-0.5-1.2,0.7-2l0.7,0.6c0,0-1,0.3-0.6,1.4L54,46.2z"/>
		</g>
		<g>
			<g>
				<path class="st11" d="M39.7,47c0.2,4.2,2.6,7.6,5.5,7.5s5.1-3.5,5-7.8s-2.6-7.6-5.5-7.5S39.5,42.8,39.7,47z"/>
				<path class="st12" d="M45.9,54.6L45.9,54.6c-0.2,0-0.4,0.1-0.7,0.1c-3,0.1-5.6-3.4-5.7-7.7c-0.1-3.9,1.8-7.3,4.5-7.9
					c0.2,0,0.4-0.1,0.7-0.1c3-0.1,5.6,3.4,5.7,7.7C50.5,50.7,48.6,54.1,45.9,54.6z M44,39.5c-2.5,0.5-4.3,3.7-4.2,7.5
					c0.1,4.1,2.5,7.4,5.3,7.3c0.2,0,0.4,0,0.6-0.1c2.5-0.5,4.3-3.7,4.2-7.5c-0.1-4.1-2.5-7.4-5.3-7.3C44.4,39.5,44.2,39.5,44,39.5z"
					/>
			</g>
			<path class="st12" d="M42.2,46.9c0.1,2.6,1.3,4.8,2.8,4.8c1.5,0,2.7-2.2,2.6-4.8s-1.3-4.8-2.8-4.8C43.3,42.1,42.1,44.3,42.2,46.9
				z"/>
			<path class="st13" d="M46.1,39.4c0,0-3.3,1.4-0.1,5.5c2.2,2.9,4.1,0,4.1,0S49.9,41.5,46.1,39.4z"/>
			<path class="st13" d="M44.5,50.3c0.6,0.9,0.7,2,0.1,2.4s-1.6,0-2.2-0.9c-0.6-0.9-0.7-2-0.1-2.4C42.9,49,43.9,49.4,44.5,50.3z"/>
			<path class="st14" d="M43,46.2c0,0-0.4-1.2,0.8-1.9l0.7,0.7c0,0-0.9,0.2-0.7,1.4L43,46.2z"/>
		</g>
		<path class="st4" d="M31.8,53.5c0,0-3.5-11.7,0.1-18.8c3.5-6.9,9.9-9.9,18.4-1.5c0,0,6.3-7.5,12.7-4.9s8.8,13.5,5.7,25.2
			c0,0,4.2-10.3,0.2-20.9c-4-10.7-16.7-4.1-18.7,0.2c0,0-7.6-9.1-15.4-3.5S30.3,50.3,31.8,53.5z"/>
		<path class="st2" d="M55.2,59.7c0,0,0-0.1,0.1-0.2c0-0.1,0.1-0.1,0.2-0.2c0.1-0.1,0.2-0.2,0.3-0.3c0.1-0.1,0.2-0.2,0.3-0.4
			c0.1-0.1,0.3-0.3,0.4-0.4c0.1-0.1,0.3-0.3,0.5-0.5c0.2-0.2,0.4-0.3,0.6-0.5c0.2-0.2,0.4-0.3,0.6-0.5c0.2-0.2,0.5-0.3,0.7-0.5
			c0.2-0.2,0.5-0.3,0.8-0.5c0.3-0.2,0.5-0.3,0.8-0.5c0.3-0.1,0.6-0.3,0.9-0.4c0.3-0.1,0.6-0.3,0.9-0.4c0.3-0.1,0.6-0.2,1-0.3
			c0.1,0,0.2-0.1,0.2-0.1l0.3-0.1l0.5-0.1l0.1,0l0.1,0l0.1,0l0.2,0c0.2,0,0.3-0.1,0.5-0.1l0.2,0c0.1,0,0.2,0,0.3,0
			c0.2,0,0.3,0,0.5-0.1c0.3-0.1,0.7-0.1,1-0.1c0.2,0,0.3,0,0.5,0c0.2,0,0.3,0,0.5,0c0.2,0,0.3,0,0.5,0c0.2,0,0.3,0,0.5,0
			c0.2,0,0.3,0,0.5,0c0.2,0,0.3,0,0.4,0c0.3,0,0.6,0.1,0.9,0.1c0.3,0,0.5,0.1,0.8,0.1c0.5,0.1,1,0.2,1.4,0.3c0.4,0.1,0.7,0.2,1,0.3
			c0.3,0.1,0.5,0.2,0.6,0.3c0.1,0.1,0.2,0.1,0.2,0.1s-0.1,0-0.2-0.1c-0.2,0-0.4-0.1-0.7-0.2c-0.3-0.1-0.6-0.1-1-0.2
			c-0.2,0-0.4-0.1-0.6-0.1c-0.2,0-0.5-0.1-0.7-0.1c-0.3,0-0.5-0.1-0.8-0.1c-0.1,0-0.3,0-0.4,0c-0.1,0-0.3,0-0.4,0
			c-0.1,0-0.3,0-0.4,0c-0.1,0-0.3,0-0.4,0c-0.2,0-0.3,0-0.5,0c-0.2,0-0.3,0-0.5,0c-0.2,0-0.3,0-0.5,0c-0.2,0-0.3,0-0.5,0
			c-0.3,0-0.6,0.1-1,0.1c-0.2,0-0.3,0-0.5,0.1c-0.1,0-0.2,0-0.2,0l-0.2,0c-0.2,0-0.3,0.1-0.5,0.1l-0.2,0l0,0l0,0l0,0c0,0,0,0,0,0
			l-0.1,0l-0.1,0l-0.5,0.1l-0.2,0.1c-0.1,0-0.2,0-0.2,0.1c-0.3,0.1-0.6,0.2-0.9,0.3c-0.3,0.1-0.6,0.2-0.9,0.4
			c-0.3,0.1-0.6,0.3-0.9,0.4c-0.3,0.1-0.6,0.3-0.8,0.4c-0.3,0.1-0.5,0.3-0.8,0.4c-0.2,0.2-0.5,0.3-0.7,0.4c-0.2,0.2-0.4,0.3-0.6,0.4
			c-0.2,0.2-0.4,0.3-0.6,0.4c-0.2,0.1-0.4,0.3-0.5,0.4c-0.2,0.1-0.3,0.3-0.4,0.4C56.1,58.8,56,59,55.9,59c-0.1,0.1-0.2,0.2-0.3,0.3
			c-0.1,0.1-0.2,0.1-0.2,0.2C55.3,59.6,55.3,59.6,55.2,59.7C55.2,59.7,55.2,59.7,55.2,59.7z"/>
	</g>
	<path class="st3" d="M64.1,84.8c0,0,0.2,2.4,3.9,5.2c0,0-3.6,5.6-16.7,5.5C51.3,95.5,61.9,92.7,64.1,84.8z"/>
	<path class="st3" d="M65.2,83.8c0,0,1.9,3.7,3.7,5.1c0,0,3-1.5,3.7-3.4c0,0-2.2-1.1-3.4-5.9C69.2,79.5,67.7,82.7,65.2,83.8z"/>
</g>
</svg>
