<?xml version="1.0" encoding="utf-8"?>
<!-- Generator: Adobe Illustrator 21.1.0, SVG Export Plug-In . SVG Version: 6.00 Build 0)  -->
<svg version="1.1" id="Layer_1" xmlns="http://www.w3.org/2000/svg" xmlns:xlink="http://www.w3.org/1999/xlink" x="0px" y="0px"
	 viewBox="0 0 100 100" style="enable-background:new 0 0 100 100;" xml:space="preserve">
<style type="text/css">
	.st0{fill:#FCC443;}
	.st1{fill:#D1860B;}
	.st2{fill:#F7D234;}
</style>
<g>
	<g>
		<g>
			<g>
				<path class="st0" d="M19,82.7c0,0-3.6-1.5-7.8,0.4c-4.2,1.9-6.1,5.4-6,8.5s1.1,4.1,1.8,4.4c0.7,0.3,2.2,0.4,2.9,0.3
					c0,0,0.7,2,1.6,2.4c0.9,0.4,4.7-0.2,5.2-1.3c0,0,1.4,0.7,3-0.1s1.7-1.6,1.5-2.3c-0.1-0.7-0.7-1.5-0.7-1.5s1.6-2,1.7-4.3
					C22.3,86.9,21.3,84,19,82.7z"/>
				<path class="st1" d="M13.6,98.9c1.2-0.2,2.7-0.6,3.3-1.3c0.3,0.1,1,0.3,1.8,0.2c0.4-0.1,0.8-0.2,1.2-0.4
					c1.8-0.9,1.8-1.8,1.7-2.6c-0.1-0.6-0.5-1.2-0.7-1.4c0.4-0.5,1.6-2.3,1.6-4.3c0.1-2.3-0.9-5.3-3.3-6.8l0,0
					c-0.1,0-2.1-0.8-4.9-0.5c-1.1,0.1-2.1,0.4-3.2,0.9c-2,0.9-3.7,2.2-4.7,3.9c-1,1.5-1.4,3.2-1.4,4.8c0.2,3.4,1.3,4.4,2,4.6
					c0.7,0.3,2.1,0.4,2.9,0.3c0.1,0.2,0.2,0.5,0.4,0.9c0.4,0.8,0.8,1.3,1.2,1.5C12,99.1,13.1,99,13.6,98.9z M16.6,97l-0.1,0.2
					c-0.2,0.5-1.5,1-3,1.2c-0.8,0.1-1.6,0.1-1.8,0c-0.7-0.3-1.3-1.7-1.4-2.2l-0.1-0.2l-0.2,0c0,0-0.1,0-0.2,0
					c-0.7,0.1-2-0.1-2.7-0.3c-0.4-0.2-1.5-0.9-1.6-4.2C5.4,90,5.9,88.4,6.8,87c1-1.6,2.6-2.8,4.5-3.7c1-0.4,2-0.7,3-0.8
					c2.5-0.3,4.4,0.4,4.6,0.4c2.2,1.3,3.1,4.1,3,6.3c-0.1,2.2-1.6,4.1-1.6,4.1l-0.1,0.1l0.1,0.2c0,0,0.5,0.8,0.7,1.4
					c0.1,0.6,0.1,1.3-1.4,2c-0.3,0.2-0.7,0.3-1,0.3c-1,0.1-1.7-0.2-1.8-0.2L16.6,97z"/>
			</g>
			<path class="st1" d="M10.8,90.4C10.8,90.4,10.8,90.5,10.8,90.4c-0.1,0.1-0.2,0.2-0.2,0.3c-0.1,0.2-0.3,0.4-0.5,0.8
				C10,91.6,9.9,91.8,9.9,92c-0.1,0.2-0.1,0.4-0.2,0.6c-0.1,0.2-0.1,0.5-0.1,0.7c0,0.2,0,0.5,0,0.8c0,0.1,0,0.3,0,0.4
				c0,0.1,0,0.3,0,0.4c0,0.2,0.1,0.5,0.1,0.7c0.1,0.2,0.1,0.4,0.2,0.6c0,0.1,0,0.1,0.1,0.1c0,0,0,0.1,0.1,0.1c0,0.1,0.1,0.2,0.1,0.3
				c0.1,0.2,0.2,0.3,0.2,0.4c0.1,0.1,0.1,0.2,0.2,0.3c0.1,0.2,0.2,0.3,0.2,0.3s0-0.1-0.1-0.3c0-0.1-0.1-0.2-0.1-0.4
				c-0.1-0.1-0.1-0.3-0.2-0.5c0-0.1,0-0.2-0.1-0.3c0,0,0-0.1,0-0.1c0,0,0-0.1,0-0.1c-0.1-0.2-0.1-0.4-0.1-0.6c0-0.1,0-0.2-0.1-0.3
				c0-0.1,0-0.1,0-0.2c0-0.1,0-0.1,0-0.2c0-0.1,0-0.2,0-0.3c0-0.1,0-0.2,0-0.4c0-0.2,0-0.5,0-0.7c0-0.2,0-0.5,0.1-0.7
				c0-0.2,0.1-0.4,0.1-0.6c0-0.2,0.1-0.4,0.2-0.6c0.1-0.2,0.1-0.3,0.2-0.5c0.1-0.1,0.1-0.3,0.1-0.4C10.7,90.6,10.8,90.4,10.8,90.4z"
				/>
			<path class="st1" d="M15.3,92.4c-0.1,0.1-0.1,0.2-0.1,0.3c0,0.1-0.1,0.2-0.1,0.3c0,0.1-0.1,0.2-0.1,0.3c0,0.1,0,0.2,0,0.4
				c0,0.1,0,0.2,0,0.4c0,0.1,0,0.2,0,0.4c0,0.1,0,0.2,0,0.4c0,0.1,0,0.2,0.1,0.4c0,0.1,0.1,0.2,0.1,0.3c0,0.1,0.1,0.2,0.1,0.3
				c0,0.1,0.1,0.2,0.2,0.3c0.1,0.1,0.1,0.2,0.2,0.3c0.1,0.1,0.1,0.2,0.2,0.3c0,0,0.1,0.1,0.1,0.1l0.1,0.1c0.1,0.1,0.2,0.2,0.2,0.3
				c0.1,0.1,0.2,0.2,0.3,0.2l0,0l0,0c0.1,0,0.1,0.1,0.2,0.1c0,0,0.1,0,0.1,0.1c0.1,0,0.2,0.1,0.3,0.1c0.1,0,0.2,0,0.3,0
				c0.1,0,0.2,0,0.3,0l0.1,0c0,0,0.1,0,0.1,0c0.1,0,0.2,0,0.3,0c0.1,0,0.2,0,0.3-0.1c0,0,0.1,0,0.1,0c0,0,0.1,0,0.1,0l-0.3,0
				c-0.1,0-0.2,0-0.3,0c-0.1,0-0.2,0-0.3,0c-0.1,0-0.2,0-0.3,0c-0.1,0-0.2,0-0.3-0.1c0,0-0.1,0-0.1,0c0,0-0.1,0-0.1,0
				c-0.1,0-0.2-0.1-0.3-0.1c0,0-0.1,0-0.1-0.1c0,0-0.1,0-0.1-0.1l0,0c-0.1-0.1-0.2-0.2-0.2-0.2c-0.1-0.1-0.1-0.2-0.2-0.3l-0.1-0.1
				c0,0-0.1-0.1-0.1-0.1c-0.1-0.1-0.1-0.2-0.2-0.3C16,96.1,16,96,15.9,95.9c-0.1-0.1-0.1-0.2-0.1-0.3c0-0.1-0.1-0.2-0.1-0.3
				c0-0.1-0.1-0.2-0.1-0.3c0-0.1,0-0.1,0-0.2c0-0.1,0-0.1,0-0.2c0-0.1-0.1-0.2-0.1-0.3c0-0.1,0-0.2-0.1-0.3c0-0.1,0-0.2,0-0.3
				c0-0.1,0-0.2,0-0.3c0-0.1,0-0.2,0-0.3c0-0.1,0-0.2,0-0.3C15.3,92.6,15.3,92.5,15.3,92.4z"/>
			<path class="st1" d="M19.5,94.4c0,0,0.1,0,0.1,0c0,0,0.1,0,0.1-0.1c0.1,0,0.1-0.1,0.2-0.1c0.1,0,0.1-0.1,0.2-0.1
				c0.1,0,0.1-0.1,0.2-0.2c0.1-0.1,0.1-0.1,0.2-0.2c0.1-0.1,0.1-0.1,0.2-0.2c0.1-0.1,0.1-0.2,0.2-0.2c0.1-0.1,0.1-0.2,0.1-0.2
				c0-0.1,0.1-0.2,0.1-0.2c0-0.1,0.1-0.2,0.1-0.2c0-0.1,0-0.1,0.1-0.2c0-0.1,0-0.1,0-0.2c0-0.1,0-0.1,0-0.1s0,0-0.1,0.1
				c0,0-0.1,0.1-0.1,0.1c0,0-0.1,0.1-0.1,0.1c0,0.1-0.1,0.1-0.1,0.2c-0.1,0.1-0.1,0.1-0.2,0.2c-0.1,0.1-0.1,0.1-0.2,0.2
				c-0.1,0.1-0.1,0.1-0.2,0.2c-0.1,0.1-0.2,0.3-0.3,0.4c-0.1,0.1-0.2,0.3-0.3,0.4c-0.1,0.1-0.2,0.2-0.2,0.3
				C19.6,94.3,19.5,94.3,19.5,94.4C19.5,94.4,19.5,94.4,19.5,94.4z"/>
			<path class="st2" d="M8.2,86.2c0,0-2.9,2.8-2,6.4l1,0.2C7.2,92.8,6.3,89.7,8.2,86.2z"/>
			<path class="st2" d="M10.9,93.9c0,0-0.3,1.9,0.7,3.7l1.1,0C12.7,97.6,10.5,95.9,10.9,93.9z"/>
			<path class="st2" d="M16.2,92.9c0,0-0.4,2.2,0.8,3.7l0.9,0.1C17.9,96.7,16.1,93.8,16.2,92.9z"/>
		</g>
	</g>
	<g>
		<g>
			<path class="st0" d="M82.9,81.2c0,0,3.8-0.7,7.6,2c3.8,2.7,4.8,6.6,4.1,9.5c-0.8,2.9-1.9,3.8-2.7,3.9c-0.8,0.1-2.3,0-2.9-0.3
				c0,0-1,1.8-2,2c-1,0.2-4.6-1.1-4.8-2.3c0,0-1.5,0.4-2.9-0.7s-1.3-1.9-1-2.5s1-1.3,1-1.3s-1.2-2.3-0.8-4.5
				C78.8,84.7,80.4,82.1,82.9,81.2z"/>
			<path class="st1" d="M79.1,95.6L79.1,95.6c1.1,0.8,2.3,0.8,2.8,0.7c0.1,0.3,0.4,0.6,0.8,0.8c1.2,0.9,3.4,1.6,4.3,1.4
				c0.5-0.1,1-0.5,1.5-1.2c0.2-0.3,0.4-0.6,0.6-0.8c0.8,0.3,2.1,0.4,2.9,0.3c0.7-0.1,2-0.8,2.9-4.1c0.4-1.6,0.3-3.3-0.4-5
				c-0.7-1.8-2-3.5-3.8-4.8c-3.8-2.8-7.6-2.1-7.8-2l0,0c-2.6,0.9-4.2,3.6-4.6,5.9c-0.3,2,0.4,3.9,0.7,4.5c-0.2,0.2-0.7,0.7-0.9,1.3
				C77.6,93.4,77.5,94.3,79.1,95.6C79,95.6,79.1,95.6,79.1,95.6z M82.3,95.7L82,95.8c0,0-1.4,0.3-2.6-0.6l0,0c0,0-0.1,0-0.1-0.1
				c-1.3-1-1.2-1.7-0.9-2.2c0.3-0.6,1-1.2,1-1.2l0.1-0.1l-0.1-0.2c0,0-1.1-2.2-0.7-4.4c0.4-2.1,1.8-4.7,4.3-5.5c0.3,0,3.9-0.6,7.4,2
				c1.7,1.2,3,2.8,3.6,4.6c0.6,1.5,0.7,3.2,0.3,4.7c-0.8,3.2-2,3.7-2.5,3.7c-0.7,0.1-2.2,0-2.8-0.3L88.8,96l-0.1,0.2
				c-0.3,0.5-1.2,1.7-1.9,1.9c-0.6,0.1-2.7-0.5-3.8-1.3c-0.4-0.3-0.6-0.6-0.7-0.8L82.3,95.7z"/>
		</g>
		<path class="st1" d="M89.3,90.5c0,0,0,0.1,0.1,0.3c0,0.1,0,0.2,0.1,0.4c0,0.1,0,0.3,0.1,0.5c0,0.2,0,0.4,0,0.6c0,0.2,0,0.4,0,0.6
			c0,0.2,0,0.4-0.1,0.7c0,0.2-0.1,0.5-0.1,0.7c0,0.1-0.1,0.2-0.1,0.3c0,0.1-0.1,0.2-0.1,0.3c0,0.1,0,0.1-0.1,0.2
			c0,0.1,0,0.1-0.1,0.2c0,0.1-0.1,0.2-0.1,0.3c-0.1,0.2-0.2,0.4-0.3,0.6c0,0,0,0.1-0.1,0.1c0,0,0,0.1-0.1,0.1c0,0.1-0.1,0.2-0.1,0.2
			c-0.1,0.2-0.2,0.3-0.2,0.4c-0.1,0.1-0.1,0.2-0.2,0.3c-0.1,0.2-0.2,0.3-0.2,0.3s0.1-0.1,0.3-0.2c0.1-0.1,0.2-0.2,0.3-0.3
			c0.1-0.1,0.2-0.2,0.3-0.4c0.1-0.1,0.1-0.2,0.2-0.2c0,0,0.1-0.1,0.1-0.1c0,0,0.1-0.1,0.1-0.1c0.1-0.2,0.2-0.4,0.3-0.6
			c0.1-0.2,0.2-0.4,0.3-0.7c0-0.1,0.1-0.2,0.1-0.4c0-0.1,0.1-0.2,0.1-0.4c0.1-0.2,0.1-0.5,0.1-0.7c0-0.2,0-0.5,0-0.7
			c0-0.2,0-0.5-0.1-0.7c0-0.2-0.1-0.4-0.1-0.6c-0.1-0.4-0.2-0.7-0.3-0.8C89.5,90.7,89.4,90.6,89.3,90.5
			C89.4,90.5,89.3,90.5,89.3,90.5z"/>
		<path class="st1" d="M84.5,91.4c0,0.1,0,0.2,0,0.3c0,0.1,0,0.2-0.1,0.3c0,0.1,0,0.2-0.1,0.3c0,0.1-0.1,0.2-0.1,0.3
			c0,0.1-0.1,0.2-0.1,0.3c0,0.1-0.1,0.2-0.1,0.3c0,0.1-0.1,0.2-0.1,0.3c0,0-0.1,0.1-0.1,0.1c0,0-0.1,0.1-0.1,0.1
			c-0.1,0.1-0.1,0.2-0.2,0.3c-0.1,0.1-0.1,0.2-0.2,0.3c-0.1,0.1-0.1,0.2-0.2,0.3c-0.1,0.1-0.1,0.2-0.2,0.2c-0.1,0.1-0.2,0.2-0.2,0.2
			c0,0-0.1,0.1-0.1,0.1l-0.1,0.1c-0.1,0.1-0.2,0.1-0.3,0.2c-0.1,0.1-0.2,0.1-0.3,0.2l0,0c0,0-0.1,0-0.1,0c0,0-0.1,0-0.1,0
			c-0.1,0-0.2,0-0.3,0c0,0-0.1,0-0.1,0c0,0-0.1,0-0.1,0c-0.1,0-0.2,0-0.3,0c-0.1,0-0.2,0-0.3,0c-0.1,0-0.2,0-0.3,0
			c-0.1,0-0.2,0-0.3-0.1l-0.3-0.1c0,0,0.1,0.1,0.1,0.1c0,0,0.1,0.1,0.1,0.1c0.1,0,0.2,0.1,0.3,0.1c0.1,0,0.2,0.1,0.3,0.1
			c0,0,0.1,0,0.1,0l0.1,0c0.1,0,0.2,0,0.3,0.1c0.1,0,0.2,0,0.3,0c0.1,0,0.2,0,0.3,0c0.1,0,0.1,0,0.2,0c0.1,0,0.1,0,0.2,0l0,0l0,0
			c0.1-0.1,0.2-0.1,0.3-0.2c0.1-0.1,0.2-0.1,0.3-0.2l0.1-0.1c0,0,0.1-0.1,0.1-0.1c0.1-0.1,0.2-0.2,0.3-0.2c0.1-0.1,0.2-0.2,0.2-0.3
			c0.1-0.1,0.2-0.2,0.2-0.3c0.1-0.1,0.1-0.2,0.2-0.3c0.1-0.1,0.1-0.2,0.2-0.3c0.1-0.1,0.1-0.2,0.1-0.3c0-0.1,0.1-0.2,0.1-0.3
			c0-0.1,0.1-0.2,0.1-0.3c0-0.1,0-0.2,0.1-0.4c0-0.1,0-0.2,0-0.4c0-0.1,0-0.2,0-0.4c0-0.1,0-0.2,0-0.3
			C84.6,91.7,84.6,91.5,84.5,91.4z"/>
		<path class="st1" d="M80,92.6C80,92.6,80,92.6,80,92.6c0-0.1,0-0.1-0.1-0.1c0-0.1-0.1-0.2-0.1-0.3c-0.1-0.1-0.1-0.3-0.2-0.4
			c-0.1-0.2-0.2-0.3-0.2-0.5c0-0.1-0.1-0.2-0.1-0.2c0-0.1-0.1-0.2-0.1-0.2c0-0.1-0.1-0.1-0.1-0.2c0-0.1-0.1-0.1-0.1-0.2
			c0-0.1-0.1-0.1-0.1-0.2c0-0.1-0.1-0.1-0.1-0.1c0-0.1-0.1-0.1-0.1-0.1s0,0.1,0,0.1c0,0,0,0.1,0,0.2c0,0.1,0,0.1,0,0.2
			c0,0.1,0,0.2,0,0.2c0,0.1,0,0.2,0.1,0.3c0,0.1,0.1,0.2,0.1,0.3c0,0.1,0.1,0.2,0.1,0.3c0,0.1,0.1,0.2,0.1,0.3
			c0.1,0.1,0.1,0.2,0.2,0.2c0.1,0.1,0.1,0.1,0.2,0.2c0.1,0.1,0.1,0.1,0.2,0.2c0.1,0,0.1,0.1,0.2,0.1c0,0,0.1,0.1,0.1,0.1
			C79.9,92.5,80,92.6,80,92.6z"/>
		<path class="st2" d="M92.7,86.9c0,0,2.3,3.3,0.6,6.7l-1,0C92.4,93.6,93.9,90.7,92.7,86.9z"/>
		<path class="st2" d="M88.5,93.9c0,0-0.1,1.9-1.4,3.4l-1-0.2C86,97.1,88.5,95.9,88.5,93.9z"/>
		<path class="st2" d="M83.5,91.7c0,0,0,2.3-1.5,3.5l-0.9-0.1C81.1,95.1,83.5,92.7,83.5,91.7z"/>
	</g>
</g>
</svg>
